<?xml version="1.0" encoding="UTF-8"?><!DOCTYPE svg PUBLIC "-//W3C//DTD SVG 1.1//EN" "http://www.w3.org/Graphics/SVG/1.1/DTD/svg11.dtd"><svg xmlns="http://www.w3.org/2000/svg" xmlns:xlink="http://www.w3.org/1999/xlink"><defs><clipPath id="clip0"><path d="M0 0h16v16H0z"/></clipPath><clipPath id="clip0"><path d="M0 0h16v16H0z"/></clipPath></defs><symbol id="icon-arrow-down"><path d="M13.578 7.744L10 11.322 6.423 7.744 5.244 8.922 10 13.678l4.756-4.756-1.178-1.178z" fill="currentColor"/></symbol><symbol id="icon-arrow-left"><path d="M12.256 13.578L8.678 10l3.578-3.578-1.178-1.178L6.322 10l4.756 4.756 1.178-1.178z" fill="currentColor"/></symbol><symbol id="icon-arrow-right"><path d="M7.744 6.423L11.322 10l-3.578 3.578 1.178 1.178L13.678 10 8.922 5.244 7.744 6.423z" fill="currentColor"/></symbol><symbol id="icon-arrow-up"><path d="M6.423 12.256L10 8.678l3.578 3.578 1.178-1.178L10 6.322l-4.756 4.756 1.179 1.178z" fill="currentColor"/></symbol><symbol id="icon-cart"><path d="M7.822 15.77A1.993 1.993 0 009.667 17h7.639c.828 0 1.581-.521 1.873-1.297l2.757-7.352A1.001 1.001 0 0021 7H6.333l-1.41-3.385A1 1 0 004 3H2v2h1.333l4.489 10.77zM19.557 9l-2.25 6h-7.64l-2.5-6h12.39zM10.5 22a1.5 1.5 0 100-3 1.5 1.5 0 000 3zm5.938 0a1.5 1.5 0 100-3 1.5 1.5 0 000 3z" fill="currentColor"/></symbol><symbol id="icon-cross"><path d="M1 23.721L23 1m0 22.721L1 1" stroke="currentColor" stroke-linecap="round" stroke-linejoin="round"/></symbol><symbol id="icon-entry"><path d="M13 16l5-4-5-4v3H4v2h9v3z" fill="currentColor"/><path d="M20 3h-9c-1.103 0-2 .897-2 2v4h2V5h9v14h-9v-4H9v4c0 1.103.897 2 2 2h9c1.103 0 2-.897 2-2V5c0-1.103-.897-2-2-2z" fill="currentColor"/></symbol><symbol id="icon-menu"><path fill-rule="evenodd" clip-rule="evenodd" d="M.75 14h22.5v-1H.75v1zm0-6.25h22.5v-1H.75v1zM.75.5v1h22.5v-1H.75z" fill="currentColor"/></symbol><symbol id="icon-skype"><path d="M17.364 8.486c.128-.455.196-.928.196-1.413C17.56 3.438 13.77.49 9.095.49c-.494 0-.977.033-1.448.096A5.948 5.948 0 005.035 0C2.324 0 .126 1.71.126 3.818c0 .705.247 1.365.675 1.931-.112.428-.171.87-.171 1.324 0 3.637 3.79 6.584 8.465 6.584.53 0 1.047-.038 1.55-.11a6.027 6.027 0 002.32.453c2.712 0 4.91-1.71 4.91-3.818 0-.61-.185-1.185-.511-1.696zm-3.928 1.734c-.391.43-.97.772-1.72 1.015-.742.24-1.632.362-2.645.362-1.216 0-2.235-.167-3.03-.495-.57-.239-1.038-.563-1.394-.962-.36-.403-.542-.804-.542-1.19 0-.24.118-.45.353-.621.232-.17.529-.256.883-.256.291 0 .542.068.746.202.195.128.362.319.496.564.15.267.314.493.487.67.166.171.405.315.71.427.306.113.72.17 1.229.17.7 0 1.274-.116 1.705-.345.422-.224.627-.492.627-.821a.732.732 0 00-.327-.625c-.23-.167-.534-.298-.904-.387a21.774 21.774 0 00-1.553-.3c-.875-.145-1.619-.318-2.211-.514a.184.184 0 01-.007-.002c-.607-.2-1.096-.48-1.454-.828a1.775 1.775 0 01-.548-1.32c0-.496.193-.945.575-1.332.378-.384.931-.682 1.643-.887.702-.202 1.538-.304 2.484-.304.756 0 1.42.068 1.975.202.558.135 1.028.318 1.398.542.372.226.65.468.823.72.176.254.265.506.265.75 0 .236-.117.45-.347.636-.232.188-.525.283-.87.283-.313 0-.559-.06-.729-.177-.158-.109-.323-.279-.505-.523a2.391 2.391 0 00-.76-.731c-.284-.168-.76-.254-1.413-.254-.607 0-1.1.095-1.467.282-.353.18-.524.386-.524.63 0 .15.055.276.168.384.12.114.29.215.505.298.222.087.452.156.681.206.236.05.63.126 1.172.223a25.952 25.952 0 011.871.38 7.01 7.01 0 011.448.515c.406.205.727.47.954.784.229.316.345.706.345 1.16 0 .542-.2 1.036-.593 1.469z" fill="currentColor"/></symbol><symbol id="icon-telegram"><g clip-path="url(#clip0)"><path d="M.283 7.714L3.969 9.09l1.427 4.59a.435.435 0 00.69.207l2.055-1.675a.613.613 0 01.747-.021l3.707 2.69a.434.434 0 00.68-.262l2.716-13.06a.435.435 0 00-.582-.494L.279 6.9a.435.435 0 00.004.813zm4.883.644l7.206-4.438c.13-.08.262.096.151.199L6.577 9.646a1.233 1.233 0 00-.382.738l-.203 1.501c-.027.2-.308.22-.363.026l-.78-2.737a.725.725 0 01.317-.816z" fill="currentColor"/></g></symbol><symbol id="icon-whatsapp"><g clip-path="url(#clip0)" fill="currentColor"><path d="M13.687 6.714c.019-2.256-1.902-4.324-4.283-4.61-.048-.005-.1-.014-.154-.023a2.18 2.18 0 00-.362-.04c-.488 0-.619.343-.653.548-.034.198-.002.365.094.496.162.22.446.259.675.29.067.01.13.018.183.03 2.139.478 2.859 1.23 3.21 3.35.01.052.013.116.017.183.016.254.048.781.615.781a.997.997 0 00.15-.012c.529-.08.512-.562.504-.794-.002-.065-.004-.127.001-.168a.216.216 0 00.003-.03z"/><path d="M8.75 1.276c.062.005.122.01.172.017 3.513.54 5.128 2.204 5.576 5.744.008.06.009.134.01.212.004.276.014.852.631.864h.02a.608.608 0 00.458-.174c.192-.201.179-.5.168-.74a3.36 3.36 0 01-.005-.163C15.825 3.416 12.691.132 9.074.01a.25.25 0 00-.044.002.303.303 0 01-.043.003c-.036 0-.08-.003-.127-.007A2.69 2.69 0 008.673 0c-.576 0-.686.41-.7.654-.032.564.514.603.776.622zm5.579 10.337a9.65 9.65 0 01-.225-.175 21.36 21.36 0 00-1.186-.868l-.245-.171c-.506-.355-.96-.528-1.39-.528-.577 0-1.082.32-1.498.95-.184.279-.408.415-.683.415a1.35 1.35 0 01-.55-.139c-1.632-.74-2.797-1.874-3.463-3.37-.322-.725-.218-1.198.349-1.583.322-.218.92-.625.878-1.403-.048-.885-1.999-3.546-2.821-3.848A1.602 1.602 0 002.405.89c-.944.318-1.622.876-1.96 1.614-.327.713-.313 1.55.042 2.42 1.026 2.518 2.467 4.713 4.286 6.524 1.78 1.773 3.967 3.226 6.5 4.317.23.098.469.152.644.191.06.014.111.025.149.035a.25.25 0 00.063.009h.02c1.192 0 2.623-1.089 3.063-2.33.385-1.088-.319-1.626-.883-2.057zM9.277 4.152c-.205.005-.63.016-.778.449-.07.202-.062.377.025.521.126.211.368.276.589.312.8.128 1.21.57 1.292 1.391.038.383.296.65.627.65.025 0 .05-.001.075-.004.398-.048.59-.34.573-.87.006-.552-.283-1.179-.774-1.679-.494-.5-1.088-.783-1.63-.77z"/></g></symbol></svg>